ffmpeg version N-80955-g5939878 Copyright (c) 2000-2016 the FFmpeg developers
  built with gcc 5.4.0 (GCC)
  configuration: --enable-gpl --enable-version3 --disable-w32threads --enable-dxva2 --enable-libmfx --enable-nvenc --enable-avisynth --enable-bzlib --enable-fontconfig --enable-frei0r --enable-gnutls --enable-iconv --enable-libass --enable-libbluray --enable-libbs2b --enable-libcaca --enable-libfreetype --enable-libgme --enable-libgsm --enable-libilbc --enable-libmodplug --enable-libmp3lame --enable-libopencore-amrnb --enable-libopencore-amrwb --enable-libopenjpeg --enable-libopus --enable-librtmp --enable-libschroedinger --enable-libsnappy --enable-libsoxr --enable-libspeex --enable-libtheora --enable-libtwolame --enable-libvidstab --enable-libvo-amrwbenc --enable-libvorbis --enable-libvpx --enable-libwavpack --enable-libwebp --enable-libx264 --enable-libx265 --enable-libxavs --enable-libxvid --enable-libzimg --enable-lzma --enable-decklink --enable-zlib
  libavutil      55. 28.100 / 55. 28.100
  libavcodec     57. 50.100 / 57. 50.100
  libavformat    57. 41.100 / 57. 41.100
  libavdevice    57.  0.102 / 57.  0.102
  libavfilter     6. 47.100 /  6. 47.100
  libswscale      4.  1.100 /  4.  1.100
  libswresample   2.  1.100 /  2.  1.100
  libpostproc    54.  0.100 / 54.  0.100
Input #0, image2pipe, from 'pipe:':
  Duration: N/A, bitrate: N/A
    Stream #0:0: Video: ppm, rgb24, 320x240, 48 fps, 48 tbr, 48 tbn, 48 tbc
[libx264 @ 00000000027a4a20] using cpu capabilities: MMX2 SSE2Fast SSSE3 SSE4.2 AVX FMA3 AVX2 LZCNT BMI2
[libx264 @ 00000000027a4a20] profile High, level 2.1
[libx264 @ 00000000027a4a20] 264 - core 148 r2705 3f5ed56 - H.264/MPEG-4 AVC codec - Copyleft 2003-2016 - http://www.videolan.org/x264.html - options: cabac=1 ref=3 deblock=1:0:0 analyse=0x3:0x113 me=hex subme=7 psy=1 psy_rd=1.00:0.00 mixed_ref=1 me_range=16 chroma_me=1 trellis=1 8x8dct=1 cqm=0 deadzone=21,11 fast_pskip=1 chroma_qp_offset=-2 threads=6 lookahead_threads=1 sliced_threads=0 nr=0 decimate=1 interlaced=0 bluray_compat=0 constrained_intra=0 bframes=3 b_pyramid=2 b_adapt=1 b_bias=0 direct=1 weightb=1 open_gop=0 weightp=2 keyint=250 keyint_min=25 scenecut=40 intra_refresh=0 rc_lookahead=40 rc=abr mbtree=1 bitrate=400 ratetol=1.0 qcomp=0.60 qpmin=0 qpmax=69 qpstep=4 ip_ratio=1.40 aq=1:1.00
[mp4 @ 00000000027a3580] Using AVStream.codec to pass codec parameters to muxers is deprecated, use AVStream.codecpar instead.
Output #0, mp4, to '.\mission_records\63c6e287-f174-4a47-8246-d2d76940e0b9\video.mp4':
  Metadata:
    encoder         : Lavf57.41.100
    Stream #0:0: Video: h264 (libx264) ([33][0][0][0] / 0x0021), yuv420p, 320x240, q=-1--1, 400 kb/s, 48 fps, 12288 tbn, 48 tbc
    Metadata:
      encoder         : Lavc57.50.100 libx264
    Side data:
      cpb: bitrate max/min/avg: 0/0/400000 buffer size: 0 vbv_delay: -1
Stream mapping:
  Stream #0:0 -> #0:0 (ppm (native) -> h264 (libx264))
frame=   44 fps=0.0 q=0.0 size=       0kB time=00:00:00.00 bitrate=N/A speed=   0x    frame=   61 fps= 59 q=35.0 size=       9kB time=00:00:00.16 bitrate= 456.5kbits/s speed=0.161x    frame=   78 fps= 50 q=28.0 size=      16kB time=00:00:00.52 bitrate= 244.6kbits/s speed=0.334x    frame=   91 fps= 44 q=25.0 size=      21kB time=00:00:00.79 bitrate= 216.6kbits/s speed=0.381x    frame=  108 fps= 41 q=22.0 size=      27kB time=00:00:01.14 bitrate= 191.6kbits/s speed=0.438x    frame=  125 fps= 40 q=20.0 size=      33kB time=00:00:01.50 bitrate= 182.6kbits/s speed=0.477x    frame=  141 fps= 38 q=18.0 size=      39kB time=00:00:01.83 bitrate= 175.0kbits/s speed= 0.5x    frame=  158 fps= 38 q=16.0 size=      44kB time=00:00:02.18 bitrate= 163.6kbits/s speed=0.524x    frame=  173 fps= 37 q=15.0 size=      49kB time=00:00:02.50 bitrate= 159.2kbits/s speed=0.534x    frame=  189 fps= 36 q=14.0 size=      51kB time=00:00:02.83 bitrate= 148.8kbits/s speed=0.544x    frame=  206 fps= 36 q=13.0 size=      53kB time=00:00:03.18 bitrate= 135.2kbits/s speed=0.554x    frame=  223 fps= 36 q=12.0 size=      54kB time=00:00:03.54 bitrate= 124.1kbits/s speed=0.564x    frame=  240 fps= 35 q=11.0 size=      55kB time=00:00:03.89 bitrate= 115.7kbits/s speed=0.573x    frame=  259 fps= 35 q=10.0 size=      56kB time=00:00:04.29 bitrate= 106.2kbits/s speed=0.587x    frame=  276 fps= 35 q=9.0 size=      56kB time=00:00:04.64 bitrate=  98.9kbits/s speed=0.594x    frame=  294 fps= 35 q=9.0 size=      57kB time=00:00:05.02 bitrate=  92.4kbits/s speed=0.602x    frame=  312 fps= 35 q=8.0 size=      82kB time=00:00:05.39 bitrate= 124.0kbits/s speed=0.609x    frame=  331 fps= 35 q=8.0 size=      82kB time=00:00:05.79 bitrate= 116.0kbits/s speed=0.618x    frame=  349 fps= 35 q=7.0 size=      82kB time=00:00:06.16 bitrate= 109.4kbits/s speed=0.623x    frame=  367 fps= 35 q=7.0 size=      83kB time=00:00:06.54 bitrate= 103.5kbits/s speed=0.627x    frame=  384 fps= 35 q=6.0 size=      83kB time=00:00:06.89 bitrate=  98.6kbits/s speed=0.631x    frame=  402 fps= 35 q=6.0 size=      83kB time=00:00:07.27 bitrate=  93.9kbits/s speed=0.636x    frame=  418 fps= 35 q=5.0 size=      84kB time=00:00:07.60 bitrate=  90.0kbits/s speed=0.637x    frame=  437 fps= 35 q=5.0 size=      84kB time=00:00:08.00 bitrate=  85.9kbits/s speed=0.642x    frame=  456 fps= 35 q=5.0 size=      84kB time=00:00:08.39 bitrate=  82.2kbits/s speed=0.646x    frame=  474 fps= 35 q=4.0 size=      85kB time=00:00:08.77 bitrate=  79.0kbits/s speed=0.65x    frame=  494 fps= 35 q=4.0 size=      85kB time=00:00:09.18 bitrate=  75.7kbits/s speed=0.656x    frame=  511 fps= 35 q=4.0 size=      85kB time=00:00:09.54 bitrate=  73.2kbits/s speed=0.657x    frame=  528 fps= 35 q=3.0 size=      86kB time=00:00:09.89 bitrate=  70.8kbits/s speed=0.657x    frame=  547 fps= 35 q=3.0 size=      86kB time=00:00:10.29 bitrate=  68.4kbits/s speed=0.661x    frame=  564 fps= 35 q=3.0 size=     111kB time=00:00:10.64 bitrate=  85.3kbits/s speed=0.661x    frame=  584 fps= 35 q=2.0 size=     111kB time=00:00:11.06 bitrate=  82.3kbits/s speed=0.665x    frame=  602 fps= 35 q=2.0 size=     112kB time=00:00:11.43 bitrate=  79.9kbits/s speed=0.667x    frame=  620 fps= 35 q=2.0 size=     112kB time=00:00:11.81 bitrate=  77.6kbits/s speed=0.669x    frame=  637 fps= 35 q=2.0 size=     112kB time=00:00:12.16 bitrate=  75.5kbits/s speed=0.67x    frame=  654 fps= 35 q=1.0 size=     112kB time=00:00:12.52 bitrate=  73.6kbits/s speed=0.671x    frame=  672 fps= 35 q=1.0 size=     113kB time=00:00:12.89 bitrate=  71.6kbits/s speed=0.672x    frame=  690 fps= 35 q=1.0 size=     113kB time=00:00:13.27 bitrate=  69.8kbits/s speed=0.673x    frame=  707 fps= 35 q=1.0 size=     113kB time=00:00:13.62 bitrate=  68.2kbits/s speed=0.673x    frame=  726 fps= 35 q=0.0 size=     114kB time=00:00:14.02 bitrate=  66.4kbits/s speed=0.675x    frame=  744 fps= 35 q=0.0 size=     114kB time=00:00:14.39 bitrate=  64.9kbits/s speed=0.677x    frame=  762 fps= 35 q=0.0 size=     114kB time=00:00:14.77 bitrate=  63.4kbits/s speed=0.678x    frame=  779 fps= 35 q=0.0 size=     115kB time=00:00:15.12 bitrate=  62.1kbits/s speed=0.678x    frame=  795 fps= 35 q=0.0 size=     115kB time=00:00:15.45 bitrate=  60.9kbits/s speed=0.678x    frame=  814 fps= 35 q=0.0 size=     140kB time=00:00:15.85 bitrate=  72.3kbits/s speed=0.679x    frame=  832 fps= 35 q=0.0 size=     140kB time=00:00:16.22 bitrate=  70.8kbits/s speed=0.68x    frame=  852 fps= 35 q=0.0 size=     141kB time=00:00:16.64 bitrate=  69.2kbits/s speed=0.683x    frame=  868 fps= 35 q=0.0 size=     141kB time=00:00:16.97 bitrate=  68.0kbits/s speed=0.682x    frame=  887 fps= 35 q=0.0 size=     141kB time=00:00:17.37 bitrate=  66.6kbits/s speed=0.684x    frame=  903 fps= 35 q=0.0 size=     142kB time=00:00:17.70 bitrate=  65.5kbits/s speed=0.684x    frame=  921 fps= 35 q=0.0 size=     142kB time=00:00:18.08 bitrate=  64.2kbits/s speed=0.685x    frame=  938 fps= 35 q=0.0 size=     142kB time=00:00:18.43 bitrate=  63.2kbits/s speed=0.684x    frame=  954 fps= 35 q=0.0 size=     142kB time=00:00:18.77 bitrate=  62.2kbits/s speed=0.684x    frame=  973 fps= 35 q=0.0 size=     143kB time=00:00:19.16 bitrate=  61.0kbits/s speed=0.685x    frame=  992 fps= 35 q=0.0 size=     143kB time=00:00:19.56 bitrate=  59.9kbits/s speed=0.687x    frame= 1011 fps= 35 q=0.0 size=     143kB time=00:00:19.95 bitrate=  58.9kbits/s speed=0.688x    frame= 1032 fps= 35 q=0.0 size=     144kB time=00:00:20.39 bitrate=  57.8kbits/s speed=0.691x    frame= 1050 fps= 35 q=0.0 size=     144kB time=00:00:20.77 bitrate=  56.8kbits/s speed=0.691x    frame= 1070 fps= 35 q=0.0 size=     169kB time=00:00:21.18 bitrate=  65.4kbits/s speed=0.693x    frame= 1087 fps= 35 q=0.0 size=     169kB time=00:00:21.54 bitrate=  64.4kbits/s speed=0.693x    frame= 1106 fps= 35 q=0.0 size=     170kB time=00:00:21.93 bitrate=  63.4kbits/s speed=0.694x    frame= 1123 fps= 35 q=0.0 size=     170kB time=00:00:22.29 bitrate=  62.5kbits/s speed=0.694x    frame= 1141 fps= 35 q=0.0 size=     170kB time=00:00:22.66 bitrate=  61.6kbits/s speed=0.694x    frame= 1157 fps= 35 q=0.0 size=     171kB time=00:00:23.00 bitrate=  60.8kbits/s speed=0.694x    frame= 1174 fps= 35 q=0.0 size=     254kB time=00:00:23.35 bitrate=  89.0kbits/s speed=0.694x    frame= 1190 fps= 35 q=0.0 size=     641kB time=00:00:23.68 bitrate= 221.6kbits/s speed=0.693x    frame= 1207 fps= 35 q=7.0 size=    1178kB time=00:00:24.04 bitrate= 401.5kbits/s speed=0.693x    frame= 1225 fps= 35 q=10.0 size=    1327kB time=00:00:24.41 bitrate= 445.1kbits/s speed=0.693x    frame= 1241 fps= 35 q=14.0 size=    1578kB time=00:00:24.75 bitrate= 522.4kbits/s speed=0.692x    frame= 1257 fps= 35 q=17.0 size=    1707kB time=00:00:25.08 bitrate= 557.5kbits/s speed=0.692x    frame= 1276 fps= 35 q=19.0 size=    1847kB time=00:00:25.47 bitrate= 593.9kbits/s speed=0.693x    frame= 1294 fps= 35 q=20.0 size=    1937kB time=00:00:25.85 bitrate= 613.7kbits/s speed=0.694x    frame= 1311 fps= 35 q=20.0 size=    1953kB time=00:00:26.20 bitrate= 610.4kbits/s speed=0.694x    frame= 1327 fps= 35 q=21.0 size=    2084kB time=00:00:26.54 bitrate= 643.3kbits/s speed=0.693x    frame= 1344 fps= 35 q=23.0 size=    2208kB time=00:00:26.89 bitrate= 672.6kbits/s speed=0.693x    frame= 1362 fps= 35 q=24.0 size=    2319kB time=00:00:27.27 bitrate= 696.5kbits/s speed=0.693x    frame= 1380 fps= 35 q=25.0 size=    2410kB time=00:00:27.64 bitrate= 714.2kbits/s speed=0.694x    frame= 1396 fps= 35 q=26.0 size=    2473kB time=00:00:27.97 bitrate= 724.0kbits/s speed=0.693x    frame= 1412 fps= 35 q=26.0 size=    2527kB time=00:00:28.31 bitrate= 731.1kbits/s speed=0.693x    frame= 1428 fps= 35 q=27.0 size=    2582kB time=00:00:28.64 bitrate= 738.5kbits/s speed=0.692x    frame= 1436 fps= 34 q=-1.0 Lsize=    2764kB time=00:00:29.85 bitrate= 758.5kbits/s speed=0.712x    
video:2747kB audio:0kB subtitle:0kB other streams:0kB global headers:0kB muxing overhead: 0.616124%
[libx264 @ 00000000027a4a20] frame I:10    Avg QP: 9.31  size: 20650
[libx264 @ 00000000027a4a20] frame P:458   Avg QP: 7.25  size:  3920
[libx264 @ 00000000027a4a20] frame B:968   Avg QP: 3.88  size:   838
[libx264 @ 00000000027a4a20] consecutive B-frames:  8.8%  3.2%  1.9% 86.1%
[libx264 @ 00000000027a4a20] mb I  I16..4: 53.0% 15.0% 32.0%
[libx264 @ 00000000027a4a20] mb P  I16..4:  4.6%  1.9%  1.7%  P16..4:  8.2%  7.8%  8.2%  0.0%  0.0%    skip:67.7%
[libx264 @ 00000000027a4a20] mb B  I16..4:  0.3%  0.1%  0.0%  B16..8:  4.4%  2.9%  2.7%  direct: 0.6%  skip:89.0%  L0:42.9% L1:41.3% BI:15.8%
[libx264 @ 00000000027a4a20] final ratefactor: 14.61
[libx264 @ 00000000027a4a20] 8x8 transform intra:21.1% inter:28.5%
[libx264 @ 00000000027a4a20] coded y,uvDC,uvAC intra: 38.6% 29.3% 21.8% inter: 8.7% 3.8% 2.8%
[libx264 @ 00000000027a4a20] i16 v,h,dc,p:  9% 83%  7%  1%
[libx264 @ 00000000027a4a20] i8 v,h,dc,ddl,ddr,vr,hd,vl,hu:  6% 32% 31%  4%  5%  4%  8%  3%  7%
[libx264 @ 00000000027a4a20] i4 v,h,dc,ddl,ddr,vr,hd,vl,hu: 10% 24% 18%  7%  8%  5% 12%  5% 12%
[libx264 @ 00000000027a4a20] i8c dc,h,v,p: 39% 55%  5%  2%
[libx264 @ 00000000027a4a20] Weighted P-Frames: Y:1.3% UV:0.4%
[libx264 @ 00000000027a4a20] ref P L0: 70.0% 13.7% 12.0%  4.2%  0.0%
[libx264 @ 00000000027a4a20] ref B L0: 89.2% 10.0%  0.8%
[libx264 @ 00000000027a4a20] ref B L1: 96.8%  3.2%
[libx264 @ 00000000027a4a20] kb/s:752.10
665x    frame= 1658 fps= 33 q=30.0 size=    1659kB time=00:00:33.43 bitrate= 406.4kbits/s speed=0.666x    frame= 1675 fps= 33 q=27.0 size=    1677kB time=00:00:33.79 bitrate= 406.4kbits/s speed=0.666x    frame= 1695 fps= 33 q=30.0 size=    1698kB time=00:00:34.20 bitrate= 406.6kbits/s speed=0.667x    frame= 1712 fps= 33 q=30.0 size=    1721kB time=00:00:34.56 bitrate= 407.9kbits/s speed=0.667x    frame= 1728 fps= 33 q=30.0 size=    1735kB time=00:00:34.89 bitrate= 407.3kbits/s speed=0.667x    frame= 1746 fps= 33 q=30.0 size=    1749kB time=00:00:35.27 bitrate= 406.3kbits/s speed=0.667x    frame= 1762 fps= 33 q=30.0 size=    1765kB time=00:00:35.60 bitrate= 406.1kbits/s speed=0.667x    frame= 1779 fps= 33 q=27.0 size=    1782kB time=00:00:35.95 bitrate= 406.1kbits/s speed=0.667x    frame= 1796 fps= 33 q=30.0 size=    1801kB time=00:00:36.31 bitrate= 406.2kbits/s speed=0.668x    frame= 1812 fps= 33 q=30.0 size=    1823kB time=00:00:36.64 bitrate= 407.5kbits/s speed=0.668x    frame= 1829 fps= 33 q=30.0 size=    1838kB time=00:00:37.00 bitrate= 406.9kbits/s speed=0.668x    frame= 1847 fps= 33 q=30.0 size=    1853kB time=00:00:37.37 bitrate= 406.1kbits/s speed=0.668x    frame= 1866 fps= 33 q=30.0 size=    1872kB time=00:00:37.77 bitrate= 406.0kbits/s speed=0.669x    frame= 1885 fps= 33 q=30.0 size=    1892kB time=00:00:38.16 bitrate= 406.1kbits/s speed=0.67x    frame= 1902 fps= 33 q=30.0 size=    1907kB time=00:00:38.52 bitrate= 405.5kbits/s speed=0.67x    frame= 1918 fps= 33 q=30.0 size=    1923kB time=00:00:38.85 bitrate= 405.4kbits/s speed=0.67x    frame= 1934 fps= 33 q=30.0 size=    1938kB time=00:00:39.18 bitrate= 405.2kbits/s speed=0.67x    frame= 1952 fps= 33 q=30.0 size=    1957kB time=00:00:39.56 bitrate= 405.2kbits/s speed=0.67x    frame= 1958 fps= 33 q=-1.0 Lsize=    2038kB time=00:00:40.72 bitrate= 409.9kbits/s speed=0.687x    
video:2018kB audio:0kB subtitle:0kB other streams:0kB global headers:0kB muxing overhead: 1.005246%
[libx264 @ 00000000027e4a20] frame I:122   Avg QP:22.45  size:  3488
[libx264 @ 00000000027e4a20] frame P:909   Avg QP:24.83  size:  1194
[libx264 @ 00000000027e4a20] frame B:927   Avg QP:25.61  size:   598
[libx264 @ 00000000027e4a20] consecutive B-frames: 29.0% 18.0% 16.9% 36.2%
[libx264 @ 00000000027e4a20] mb I  I16..4: 56.4% 40.9%  2.8%
[libx264 @ 00000000027e4a20] mb P  I16..4:  5.8%  6.8%  0.9%  P16..4: 22.7%  9.3%  5.8%  0.0%  0.0%    skip:48.8%
[libx264 @ 00000000027e4a20] mb B  I16..4:  1.4%  0.5%  0.1%  B16..8: 34.2%  8.5%  2.1%  direct: 1.5%  skip:51.8%  L0:52.1% L1:45.9% BI: 2.0%
[libx264 @ 00000000027e4a20] final ratefactor: 22.23
[libx264 @ 00000000027e4a20] 8x8 transform intra:44.4% inter:58.3%
[libx264 @ 00000000027e4a20] coded y,uvDC,uvAC intra: 42.3% 4.5% 1.1% inter: 9.7% 0.9% 0.1%
[libx264 @ 00000000027e4a20] i16 v,h,dc,p: 11% 85%  4%  1%
[libx264 @ 00000000027e4a20] i8 v,h,dc,ddl,ddr,vr,hd,vl,hu:  4% 19% 42%  5%  6%  4%  8%  4%  8%
[libx264 @ 00000000027e4a20] i4 v,h,dc,ddl,ddr,vr,hd,vl,hu:  7% 20% 30%  6%  8%  5% 11%  4%  9%
[libx264 @ 00000000027e4a20] i8c dc,h,v,p: 56% 43%  0%  1%
[libx264 @ 00000000027e4a20] Weighted P-Frames: Y:0.2% UV:0.1%
[libx264 @ 00000000027e4a20] ref P L0: 66.9% 10.6% 14.8%  7.7%
[libx264 @ 00000000027e4a20] ref B L0: 83.3% 13.7%  3.0%
[libx264 @ 00000000027e4a20] ref B L1: 97.0%  3.0%
[libx264 @ 00000000027e4a20] kb/s:405.05
e=00:00:55.83 bitrate= 404.1kbits/s speed=0.809x    frame= 1404 fps= 20 q=36.0 size=    2779kB time=00:00:56.29 bitrate= 404.4kbits/s speed=0.809x    frame= 1415 fps= 20 q=36.0 size=    2799kB time=00:00:56.75 bitrate= 404.1kbits/s speed=0.809x    frame= 1425 fps= 20 q=36.0 size=    2816kB time=00:00:57.16 bitrate= 403.6kbits/s speed=0.809x    frame= 1436 fps= 20 q=36.0 size=    2839kB time=00:00:57.62 bitrate= 403.5kbits/s speed=0.809x    frame= 1446 fps= 20 q=36.0 size=    2859kB time=00:00:58.04 bitrate= 403.5kbits/s speed=0.809x    frame= 1456 fps= 20 q=36.0 size=    2883kB time=00:00:58.45 bitrate= 404.0kbits/s speed=0.809x    frame= 1467 fps= 20 q=36.0 size=    2906kB time=00:00:58.91 bitrate= 404.0kbits/s speed=0.81x    frame= 1477 fps= 20 q=36.0 size=    2923kB time=00:00:59.33 bitrate= 403.6kbits/s speed=0.81x    frame= 1487 fps= 20 q=36.0 size=    2944kB time=00:00:59.75 bitrate= 403.6kbits/s speed=0.81x    frame= 1496 fps= 20 q=36.0 size=    2963kB time=00:01:00.12 bitrate= 403.7kbits/s speed=0.809x    frame= 1506 fps= 20 q=36.0 size=    2984kB time=00:01:00.54 bitrate= 403.7kbits/s speed=0.809x    frame= 1517 fps= 20 q=36.0 size=    3006kB time=00:01:01.00 bitrate= 403.7kbits/s speed=0.809x    frame= 1527 fps= 20 q=36.0 size=    3027kB time=00:01:01.41 bitrate= 403.7kbits/s speed=0.809x    frame= 1538 fps= 20 q=36.0 size=    3051kB time=00:01:01.87 bitrate= 404.0kbits/s speed=0.809x    frame= 1548 fps= 20 q=33.0 size=    3071kB time=00:01:02.29 bitrate= 403.8kbits/s speed=0.81x    frame= 1558 fps= 20 q=36.0 size=    3096kB time=00:01:02.70 bitrate= 404.5kbits/s speed=0.81x    frame= 1568 fps= 20 q=36.0 size=    3113kB time=00:01:03.12 bitrate= 404.0kbits/s speed=0.81x    frame= 1579 fps= 20 q=36.0 size=    3132kB time=00:01:03.58 bitrate= 403.6kbits/s speed=0.81x    frame= 1589 fps= 20 q=36.0 size=    3149kB time=00:01:04.00 bitrate= 403.1kbits/s speed=0.81x    frame= 1599 fps= 20 q=36.0 size=    3170kB time=00:01:04.41 bitrate= 403.2kbits/s speed=0.81x    frame= 1609 fps= 20 q=36.0 size=    3190kB time=00:01:04.83 bitrate= 403.1kbits/s speed=0.81x    frame= 1619 fps= 20 q=36.0 size=    3211kB time=00:01:05.25 bitrate= 403.1kbits/s speed=0.81x    frame= 1629 fps= 20 q=36.0 size=    3228kB time=00:01:05.66 bitrate= 402.8kbits/s speed=0.811x    frame= 1639 fps= 20 q=36.0 size=    3250kB time=00:01:06.08 bitrate= 402.9kbits/s speed=0.811x    frame= 1649 fps= 20 q=36.0 size=    3270kB time=00:01:06.50 bitrate= 402.8kbits/s speed=0.811x    frame= 1659 fps= 20 q=36.0 size=    3291kB time=00:01:06.91 bitrate= 402.8kbits/s speed=0.811x    frame= 1669 fps= 20 q=36.0 size=    3307kB time=00:01:07.33 bitrate= 402.3kbits/s speed=0.811x    frame= 1680 fps= 20 q=36.0 size=    3330kB time=00:01:07.79 bitrate= 402.5kbits/s speed=0.811x    frame= 1691 fps= 20 q=36.0 size=    3359kB time=00:01:08.25 bitrate= 403.2kbits/s speed=0.811x    frame= 1701 fps= 20 q=36.0 size=    3378kB time=00:01:08.66 bitrate= 402.9kbits/s speed=0.811x    frame= 1712 fps= 20 q=36.0 size=    3398kB time=00:01:09.12 bitrate= 402.7kbits/s speed=0.811x    frame= 1723 fps= 20 q=36.0 size=    3420kB time=00:01:09.58 bitrate= 402.6kbits/s speed=0.812x    frame= 1733 fps= 20 q=36.0 size=    3439kB time=00:01:10.00 bitrate= 402.4kbits/s speed=0.812x    frame= 1743 fps= 20 q=36.0 size=    3456kB time=00:01:10.41 bitrate= 402.1kbits/s speed=0.812x    frame= 1753 fps= 20 q=36.0 size=    3478kB time=00:01:10.83 bitrate= 402.2kbits/s speed=0.812x    frame= 1764 fps= 20 q=36.0 size=    3500kB time=00:01:11.29 bitrate= 402.2kbits/s speed=0.812x    frame= 1775 fps= 20 q=36.0 size=    3524kB time=00:01:11.75 bitrate= 402.3kbits/s speed=0.812x    frame= 1786 fps= 20 q=36.0 size=    3546kB time=00:01:12.20 bitrate= 402.3kbits/s speed=0.812x    frame= 1797 fps= 20 q=36.0 size=    3570kB time=00:01:12.66 bitrate= 402.4kbits/s speed=0.812x    frame= 1808 fps= 20 q=36.0 size=    3590kB time=00:01:13.12 bitrate= 402.1kbits/s speed=0.812x    frame= 1820 fps= 20 q=36.0 size=    3613kB time=00:01:13.62 bitrate= 402.1kbits/s speed=0.812x    frame= 1830 fps= 20 q=36.0 size=    3631kB time=00:01:14.04 bitrate= 401.8kbits/s speed=0.813x    frame= 1840 fps= 20 q=36.0 size=    3654kB time=00:01:14.45 bitrate= 402.0kbits/s speed=0.813x    frame= 1851 fps= 20 q=36.0 size=    3682kB time=00:01:14.91 bitrate= 402.6kbits/s speed=0.813x    frame= 1861 fps= 20 q=36.0 size=    3702kB time=00:01:15.33 bitrate= 402.6kbits/s speed=0.813x    frame= 1872 fps= 20 q=36.0 size=    3727kB time=00:01:15.79 bitrate= 402.8kbits/s speed=0.813x    frame= 1883 fps= 20 q=36.0 size=    3747kB time=00:01:16.25 bitrate= 402.6kbits/s speed=0.813x    frame= 1893 fps= 20 q=36.0 size=    3768kB time=00:01:16.66 bitrate= 402.6kbits/s speed=0.813x    frame= 1904 fps= 20 q=36.0 size=    3791kB time=00:01:17.12 bitrate= 402.6kbits/s speed=0.813x    frame= 1915 fps= 20 q=36.0 size=    3810kB time=00:01:17.58 bitrate= 402.3kbits/s speed=0.813x    frame= 1926 fps= 20 q=36.0 size=    3832kB time=00:01:18.04 bitrate= 402.2kbits/s speed=0.813x    frame= 1936 fps= 20 q=36.0 size=    3851kB time=00:01:18.45 bitrate= 402.1kbits/s speed=0.814x    frame= 1947 fps= 20 q=36.0 size=    3870kB time=00:01:18.91 bitrate= 401.8kbits/s speed=0.814x    frame= 1957 fps= 20 q=36.0 size=    3891kB time=00:01:19.33 bitrate= 401.8kbits/s speed=0.814x    frame= 1968 fps= 20 q=36.0 size=    3913kB time=00:01:19.79 bitrate= 401.8kbits/s speed=0.814x    frame= 1979 fps= 20 q=36.0 size=    3940kB time=00:01:20.25 bitrate= 402.2kbits/s speed=0.814x    frame= 1989 fps= 20 q=36.0 size=    3959kB time=00:01:20.66 bitrate= 402.1kbits/s speed=0.813x    frame= 1989 fps= 20 q=-1.0 Lsize=    4077kB time=00:01:22.75 bitrate= 403.6kbits/s speed=0.833x    
video:4053kB audio:0kB subtitle:0kB other streams:0kB global headers:0kB muxing overhead: 0.591274%
[libx264 @ 00000000028c4a20] frame I:26    Avg QP:32.05  size:  6662
[libx264 @ 00000000028c4a20] frame P:517   Avg QP:36.60  size:  2986
[libx264 @ 00000000028c4a20] frame B:1446  Avg QP:37.58  size:  1682
[libx264 @ 00000000028c4a20] consecutive B-frames:  2.7%  0.7%  1.1% 95.5%
[libx264 @ 00000000028c4a20] mb I  I16..4: 19.7% 25.5% 54.8%
[libx264 @ 00000000028c4a20] mb P  I16..4:  5.3%  7.8% 13.5%  P16..4: 33.7% 20.7% 13.8%  0.0%  0.0%    skip: 5.2%
[libx264 @ 00000000028c4a20] mb B  I16..4:  1.1%  0.5%  0.6%  B16..8: 49.3% 11.9%  3.2%  direct:15.8%  skip:17.6%  L0:49.1% L1:48.2% BI: 2.8%
[libx264 @ 00000000028c4a20] final ratefactor: 30.70
[libx264 @ 00000000028c4a20] 8x8 transform intra:27.5% inter:26.8%
[libx264 @ 00000000028c4a20] coded y,uvDC,uvAC intra: 75.0% 10.2% 0.8% inter: 28.1% 1.1% 0.0%
[libx264 @ 00000000028c4a20] i16 v,h,dc,p: 17% 20% 54%  9%
[libx264 @ 00000000028c4a20] i8 v,h,dc,ddl,ddr,vr,hd,vl,hu:  7% 10% 49%  7%  6%  5%  7%  4%  6%
[libx264 @ 00000000028c4a20] i4 v,h,dc,ddl,ddr,vr,hd,vl,hu: 13% 17% 52%  4%  3%  2%  4%  2%  3%
[libx264 @ 00000000028c4a20] i8c dc,h,v,p: 86% 12%  1%  0%
[libx264 @ 00000000028c4a20] Weighted P-Frames: Y:5.0% UV:1.7%
[libx264 @ 00000000028c4a20] ref P L0: 50.7%  8.8% 23.1% 16.6%  0.8%
[libx264 @ 00000000028c4a20] ref B L0: 84.0% 11.5%  4.5%
[libx264 @ 00000000028c4a20] ref B L1: 94.3%  5.7%
[libx264 @ 00000000028c4a20] kb/s:400.60
